{"title":"In the Mouth of Madness 1995 DVDRip XviD BigPerm LKRG","uid":6081190,"size":881696423,"categoryP":"video","categoryS":"movies","magnet":"?xt=urn:btih:fb023fab74ef01f80377bdefdc7e1cb69c0ef94f&amp;dn=In+the+Mouth+of+Madness+1995+DVDRip+XviD+BigPerm+LKRG&amp;tr=udp%3A%2F%2Ftracker.openbittorrent.com%3A80&amp;tr=udp%3A%2F%2Fopen.demonii.com%3A1337&amp;tr=udp%3A%2F%2Ftracker.coppersurfer.tk%3A6969&amp;tr=udp%3A%2F%2Fexodus.desync.com%3A6969","seeders":4,"leechers":0,"uploader":"raymondhome","files":-1,"time":1294127801,"description":"Love for All and Sharing is the first step to solving all the problems of humanity.\n\nWebsites I want to share.\n\n &lt;a href=&quot;\nhttp://www.shareintl.org/&quot; rel=&quot;nofollow&quot; target=&quot;_NEW&quot;&gt;\nhttp://www.shareintl.org/&lt;/a&gt;\n\n &lt;a href=&quot;\nhttp://www.lightmiddleway.com&quot; rel=&quot;nofollow&quot; target=&quot;_NEW&quot;&gt;\nhttp://www.lightmiddleway.com&lt;/a&gt;\n\n\nThank you very much\n\nNo credit for me...credit to EVERYONE for sharing\n\n &lt;a href=&quot;\nhttp://thepiratebay.se/user/raymondhome/&quot; rel=&quot;nofollow&quot; target=&quot;_NEW&quot;&gt;\nhttp://thepiratebay.se/user/raymondhome/&lt;/a&gt;\n\nSTORY\nAn insurance investigator begins discovering that the impact a horror writer's books have on his fans is more than inspirational.\n\nGeneral\nFormat : AVI\nFormat/Info : Audio Video Interleave\nDuration : 1h 35mn\nOverall bit rate : 1 232 Kbps\n\nVideo\nID : 0\nFormat : MPEG-4 Visual\nFormat profile : Advanced Simple@L5\nFormat settings, BVOP : Yes\nFormat settings, QPel : No\nFormat settings, GMC : No warppoints\nFormat settings, Matrix : Default (H.263)\nCodec ID : XVID\nCodec ID/Hint : XviD\nDuration : 1h 35mn\nBit rate : 779 Kbps\nWidth : 704 pixels\nHeight : 396 pixels\nDisplay aspect ratio : 16:9\nFrame rate : 23.976 fps\nColor space : YUV\nChroma subsampling : 4:2:0\nBit depth : 8 bits\nScan type : Progressive\nCompression mode : Lossy\nBits/(Pixel*Frame) : 0.117\nStream size : 532 MiB (63%)\nWriting library : XviD 1.2.1 (UTC 2008-12-04)\n\nAudio\nID : 1\nFormat : AC-3\nFormat/Info : Audio Coding 3\nMode extension : CM (complete main)\nCodec ID : 2000\nDuration : 1h 35mn\nBit rate mode : Constant\nBit rate : 448 Kbps\nChannel(s) : 6 channels\nChannel positions : Front: L C R, Side: L R, LFE\nSampling rate : 48.0 KHz\nBit depth : 16 bits\nCompression mode : Lossy\nVideo delay : 42ms\nStream size : 306 MiB (36%)\nAlignment : Split accross interleaves\nInterleave, duration : 500 ms (11.99 video frames)\nInterleave, preload duration : 500 ms\nLanguage : English\n\ncredit LKRG &amp; BigPerm &amp; to all the people who made it possible for us to share this...especially EVERYONE involve in the production of the movie...IF YOU LIKE IT...BUY IT :)\n\n*****help what we can with others in need...the world is ONE big family*****\n\nSCREENSHOTS\n &lt;a href=&quot;\nhttp://leetleech.org/images/58916500688167484842.png&quot; rel=&quot;nofollow&quot; target=&quot;_NEW&quot;&gt;\nhttp://leetleech.org/images/58916500688167484842.png&lt;/a&gt;\n &lt;a href=&quot;\nhttp://leetleech.org/images/52745240270050958300.png&quot; rel=&quot;nofollow&quot; target=&quot;_NEW&quot;&gt;\nhttp://leetleech.org/images/52745240270050958300.png&lt;/a&gt;\n &lt;a href=&quot;\nhttp://leetleech.org/images/06691717145899985918.png&quot; rel=&quot;nofollow&quot; target=&quot;_NEW&quot;&gt;\nhttp://leetleech.org/images/06691717145899985918.png&lt;/a&gt;\n &lt;a href=&quot;\nhttp://leetleech.org/images/57750444438851187331.png&quot; rel=&quot;nofollow&quot; target=&quot;_NEW&quot;&gt;\nhttp://leetleech.org/images/57750444438851187331.png&lt;/a&gt;\n &lt;a href=&quot;\nhttp://leetleech.org/images/10386544129572943110.png&quot; rel=&quot;nofollow&quot; target=&quot;_NEW&quot;&gt;\nhttp://leetleech.org/images/10386544129572943110.png&lt;/a&gt;\n &lt;a href=&quot;\nhttp://leetleech.org/images/29830756674800337191.png&quot; rel=&quot;nofollow&quot; target=&quot;_NEW&quot;&gt;\nhttp://leetleech.org/images/29830756674800337191.png&lt;/a&gt;\n &lt;a href=&quot;\nhttp://leetleech.org/images/88703191608852677404.png&quot; rel=&quot;nofollow&quot; target=&quot;_NEW&quot;&gt;\nhttp://leetleech.org/images/88703191608852677404.png&lt;/a&gt;\n &lt;a href=&quot;\nhttp://leetleech.org/images/66016431299353357326.png&quot; rel=&quot;nofollow&quot; target=&quot;_NEW&quot;&gt;\nhttp://leetleech.org/images/66016431299353357326.png&lt;/a&gt;\n &lt;a href=&quot;\nhttp://leetleech.org/images/02754914779672240822.png&quot; rel=&quot;nofollow&quot; target=&quot;_NEW&quot;&gt;\nhttp://leetleech.org/images/02754914779672240822.png&lt;/a&gt;\n\nDON'T THANK US...HELP SOMEONE IN NEED :)\n\nMAY YOU &amp; YOUR LOVED ONES ALWAYS BE BLESSED WITH LIGHT, LOVE, JOY, PEACE, GOOD HEALTH &amp; ABUNDANCE :)\n &lt;a href=&quot;\nhttp://www.imdb.com/title/tt0113409/&quot; rel=&quot;nofollow&quot; target=&quot;_NEW&quot;&gt;\nhttp://www.imdb.com/title/tt0113409/&lt;/a&gt;","torrent":{"xt":"urn:btih:fb023fab74ef01f80377bdefdc7e1cb69c0ef94f","amp;dn":"In+the+Mouth+of+Madness+1995+DVDRip+XviD+BigPerm+LKRG","amp;tr":["udp%3A%2F%2Ftracker.openbittorrent.com%3A80","udp%3A%2F%2Fopen.demonii.com%3A1337","udp%3A%2F%2Ftracker.coppersurfer.tk%3A6969","udp%3A%2F%2Fexodus.desync.com%3A6969"],"infoHash":"fb023fab74ef01f80377bdefdc7e1cb69c0ef94f","infoHashBuffer":{"type":"Buffer","data":[251,2,63,171,116,239,1,248,3,119,189,239,220,126,28,182,156,14,249,79]},"announce":[],"urlList":[]}}